<?xml version="1.0" standalone="no"?><svg xmlns="http://www.w3.org/2000/svg" viewBox="0 0 1440 320"><path fill="#fff" fill-opacity="1" d="M0,32L20,74.7C40,117,80,203,120,218.7C160,235,200,181,240,144C280,107,320,85,360,101.3C400,117,440,171,480,213.3C520,256,560,288,600,261.3C640,235,680,149,720,128C760,107,800,149,840,154.7C880,160,920,128,960,138.7C1000,149,1040,203,1080,208C1120,213,1160,171,1200,181.3C1240,192,1280,256,1320,256C1360,256,1400,192,1420,160L1440,128L1440,320L1420,320C1400,320,1360,320,1320,320C1280,320,1240,320,1200,320C1160,320,1120,320,1080,320C1040,320,1000,320,960,320C920,320,880,320,840,320C800,320,760,320,720,320C680,320,640,320,600,320C560,320,520,320,480,320C440,320,400,320,360,320C320,320,280,320,240,320C200,320,160,320,120,320C80,320,40,320,20,320L0,320Z"></path></svg>